<?xml version="1.0" encoding="UTF-8"?>
<svg id="Capa_1" data-name="Capa 1" xmlns="http://www.w3.org/2000/svg" viewBox="0 0 500 154">
  <defs>
    <style>
      .cls-1 {
        fill: #515151;
      }

      .cls-2 {
        fill: #26a599;
      }
    </style>
  </defs>
  <g>
    <path class="cls-1" d="M406.29,31.07c-.66-.07-1.23-.13-1.7-.19-.11-.01-.18-.1-.2-.21-.26-2.1-.08-4.12.51-6.02.47,2.17,1.02,4.21,1.64,6.12.05.16-.08.31-.25.29Z"/>
    <path class="cls-1" d="M409.48,39.08c-.93-.18-1.69-.33-2.25-.45-.07-.01-.12-.06-.15-.12-.73-1.3-1.31-2.57-1.75-3.83-.06-.16.07-.33.24-.31.6.07,1.34.14,2.2.22.09,0,.17.07.2.15.56,1.43,1.16,2.77,1.76,4.01.08.17-.07.36-.26.32Z"/>
    <path class="cls-1" d="M416.09,49.06c-.51-.44-1.01-.88-1.49-1.33h-.01c-2.29-2.13-4.21-4.29-5.74-6.43.82.2,1.63.36,2.46.51h.01c1.4,2.55,2.76,4.57,3.8,5.99.37.49.7.92.97,1.26Z"/>
    <path class="cls-1" d="M412.24,20.81c.02.14-.1.27-.24.26-2.58-.13-4.36-.31-4.9-.37-.02-.09-.03-.17-.06-.25,1.13-1.53,2.59-2.93,4.4-4.16.15-.1.36,0,.36.18.06,1.42.21,2.87.43,4.34Z"/>
    <path class="cls-1" d="M414.58,31.72c-1.57-.08-3.04-.18-4.38-.28-.09,0-.17-.07-.2-.16-.84-2.5-1.49-4.78-1.99-6.71-.04-.14.07-.28.22-.28,1.51-.07,2.98-.15,4.4-.24.11,0,.21.07.24.18.51,2.38,1.18,4.8,1.95,7.2.05.15-.07.31-.24.3Z"/>
    <path class="cls-1" d="M417.73,40.25c-1.58-.16-3.02-.34-4.31-.52-.08-.01-.15-.06-.18-.14-.67-1.48-1.27-2.96-1.82-4.39-.06-.16.06-.32.22-.31,1.29.07,2.72.13,4.27.16.09,0,.18.06.21.15.58,1.62,1.2,3.2,1.85,4.73.07.16-.07.33-.24.32Z"/>
    <path class="cls-1" d="M421.55,48.67c-1.32-.15-2.51-.3-3.57-.45-.07,0-.13-.05-.16-.11-1.12-1.75-2.14-3.55-3.07-5.37-.09-.17.06-.36.24-.33,1.37.21,2.75.38,4.13.5.08,0,.15.06.19.13.83,1.87,1.67,3.66,2.48,5.3.08.16-.06.35-.24.33Z"/>
    <path class="cls-1" d="M425.79,55.98c-1.43-.86-2.78-1.72-4.06-2.6-.01,0-.01-.01-.02-.01-.45-.52-.89-1.07-1.32-1.61.97.09,2.06.16,3.22.2h.01c.81,1.56,1.55,2.92,2.17,4.02Z"/>
    <path class="cls-1" d="M415.63,20.95c-.31-3.18-.19-5.46-.04-6.83,0-.08.06-.15.14-.18,1.77-.77,3.74-1.44,5.92-1.99.16-.04.31.09.29.25-.3,2.62-.23,5.53.12,8.58.01.13-.09.25-.22.26-2.14.11-4.15.15-5.98.13-.12,0-.22-.1-.23-.22Z"/>
    <path class="cls-1" d="M423.89,31.86c-1.99.04-3.96.04-5.82-.01-.1,0-.19-.07-.22-.17-.86-2.86-1.42-5.4-1.8-7.63-.02-.13.08-.25.21-.27,2.06-.17,4.03-.37,5.88-.58.12-.01.23.07.25.19.41,2.67,1.01,5.43,1.71,8.18.04.14-.07.29-.22.29Z"/>
    <path class="cls-1" d="M426.54,40.79c-1.86-.04-3.63-.12-5.29-.24-.09,0-.16-.06-.2-.14-.75-1.76-1.4-3.43-1.98-5.03-.05-.15.05-.31.21-.31,1.73,0,3.59-.05,5.54-.15.11,0,.2.06.23.16.53,1.83,1.11,3.63,1.7,5.4.05.15-.07.31-.23.3Z"/>
    <path class="cls-1" d="M429.66,49.43c-1.5-.11-2.94-.22-4.29-.36-.08,0-.14-.06-.18-.12-1.02-1.88-1.92-3.69-2.73-5.43-.07-.16.05-.34.23-.32,1.65.11,3.29.16,4.92.17.1,0,.18.06.21.15.69,1.95,1.39,3.83,2.08,5.59.06.16-.07.32-.24.31Z"/>
    <path class="cls-1" d="M432.69,56.74c-1.14-.11-2.17-.21-3.06-.3-.07,0-.13-.05-.17-.11-.85-1.36-1.65-2.69-2.4-3.99-.09-.15.02-.34.2-.35,1.14-.01,2.35-.03,3.59-.08.1,0,.19.06.22.14.66,1.6,1.29,3.07,1.86,4.36.07.16-.07.33-.24.31Z"/>
    <path class="cls-1" d="M434.9,60.78c-1.29-.58-2.52-1.2-3.73-1.81-.04-.02-.07-.05-.09-.08-.22-.33-.43-.66-.64-.99,1.09.16,2.16.29,3.21.42.08.01.15.06.18.14.42.92.78,1.7,1.07,2.32Z"/>
    <path class="cls-1" d="M436.01,30.73c-2.56.46-5.26.76-7.96.93-.12,0-.22-.07-.25-.19-.73-3.22-1.21-6.09-1.52-8.6-.02-.13.08-.24.2-.25,3.35-.49,6.3-1.04,8.92-1.62.14-.03.27.07.27.22.03,2.73.18,5.84.51,9.25.01.12-.07.23-.19.26Z"/>
    <path class="cls-1" d="M435.5,19.04c-3.06.79-6.2,1.31-9.21,1.63-.13.01-.25-.09-.26-.22-.4-4.52-.21-7.61-.03-9.22.01-.11.09-.18.2-.2,3.41-.53,6.62-.79,9.68-.79.14,0,.25.11.23.25-.14,1.41-.4,4.31-.44,8.31,0,.11-.07.2-.18.23Z"/>
    <path class="cls-1" d="M437.33,40.5c-2.36.18-4.64.28-6.81.3-.1,0-.19-.07-.23-.17-.63-1.99-1.17-3.89-1.64-5.69-.04-.14.06-.27.2-.29,1.79-.14,3.65-.32,5.57-.55.64-.08,1.28-.17,1.91-.26.13-.02.25.07.26.2.24,1.98.55,4.05.94,6.18.02.14-.07.26-.21.28Z"/>
    <path class="cls-1" d="M439.29,49.21c-1.98.33-3.77.52-5.63.45-.09,0-.18-.07-.21-.15-.8-2.02-1.52-3.97-2.16-5.84-.05-.15.06-.3.22-.3,2.15-.04,4.3-.15,6.39-.29.11,0,.22.07.24.19.43,2.02.77,3.55,1.34,5.65.04.13-.05.28-.19.3Z"/>
    <path class="cls-1" d="M436.67,57.1h0c-.79-1.74-1.51-3.41-2.19-5.04-.06-.15.04-.31.2-.32,1.72-.1,3.49-.21,5.31-.35.11,0,.21.06.24.16.55,1.84,1.15,3.71,1.83,5.6.06.16-.07.32-.23.31-1.82-.11-3.55-.23-5.15-.36Z"/>
    <path class="cls-1" d="M445.28,65.09c.08.18-.09.38-.28.32-1.01-.3-1.92-.63-2.69-1.01-.15-.09-.31-.17-.46-.25-.09-.05-.19-.1-.28-.14h-.01c-.67-.37-1.36-.71-2.05-1.05-.05-.02-.08-.06-.11-.11-.62-1.25-1.22-2.48-1.79-3.69-.08-.16.06-.35.24-.33,1.68.19,3.3.36,4.87.52.09,0,.16.06.19.14.72,1.86,1.5,3.72,2.36,5.6Z"/>
    <path class="cls-1" d="M447.43,31.64c.04,2.32.14,4.76.32,7.31,0,.12-.07.23-.19.25-2.11.39-4.19.69-6.23.92-.12.01-.24-.07-.26-.19-.37-2.11-.68-4.3-.92-6.54-.01-.12.07-.23.19-.25,2.37-.48,4.65-1.06,6.81-1.71.15-.04.29.06.29.21Z"/>
    <path class="cls-1" d="M439.85,19.9c3.24-.89,5.8-1.82,7.8-2.68.16-.07.33.05.31.23-.24,2.63-.46,5.91-.53,9.66,0,.09-.06.18-.14.21-1.75.68-3.67,1.38-5.78,2.05-.54.17-1.11.34-1.68.5-.23-3.18-.3-6.45-.16-9.76,0-.1.08-.19.18-.22Z"/>
    <path class="cls-1" d="M448.63,11.91c-.05.35-.1.75-.17,1.23-2.44,1.87-5.29,3.33-8.3,4.45-.16.06-.33-.07-.32-.24.17-2.21.44-4.43.82-6.66.02-.12.14-.21.26-.2,2.72.26,5.29.75,7.72,1.42Z"/>
    <path class="cls-1" d="M448.54,48.38c-1.81.36-3.46.51-5.45.59-.11,0-.21-.07-.24-.18-.54-2.05-.75-3.53-1.2-5.78-.03-.13.07-.27.2-.28,2.03-.21,4.01-.44,5.93-.72.13-.02.25.08.26.21.21,2.25.3,3.51.68,5.87.02.12-.06.25-.19.28Z"/>
    <path class="cls-1" d="M450.44,57.82c-1.57-.03-3.13-.08-4.64-.15-.1,0-.18-.06-.21-.16-.64-1.89-1.29-3.94-1.91-6.14-.04-.14.06-.29.2-.3,1.69-.15,3.39-.31,5.1-.48.12-.01.23.07.25.19.39,2.22.88,4.48,1.44,6.74.04.15-.08.29-.23.29Z"/>
    <path class="cls-1" d="M453.19,66.82c-1.4-.13-2.75-.3-4.02-.5-.08-.01-.14-.06-.17-.13-.73-1.62-1.6-3.7-2.51-6.15-.06-.16.07-.33.24-.32,1.55.14,3.03.25,4.45.35.1,0,.18.07.2.16.59,2.09,1.27,4.2,2.04,6.28.06.16-.07.33-.24.31Z"/>
    <path class="cls-1" d="M456.14,73c-1.19-.61-2.16-1.18-2.82-1.59-.02-.01-.03-.02-.06-.05-.83-.63-1.7-1.26-2.62-1.9-.05-.08-.09-.16-.14-.24.98.1,2.31.24,3.97.35.09,0,.17.06.2.14.46,1.1.95,2.2,1.46,3.29Z"/>
    <path class="cls-1" d="M475.56,102.73c.06.06.08.14.05.22-.56,1.79-1.36,4.5-1.84,5.75-.5,1.32-2.46,1.02-2.53-.39-.07-1.38,0-3.43-.15-5.95,0-.13.11-.25.24-.25,2.92,0,3.95.37,4.22.62Z"/>
    <path class="cls-1" d="M459.19,39.97c.1,2.7.17,4.17.52,7.1-2.39.38-4.66.65-7.06.87-.35-2.53-.62-3.79-.8-6.57,2.6-.43,5.05-.9,7.35-1.4Z"/>
    <path class="cls-1" d="M451.82,29.92c2.69-.95,5.11-1.95,7.2-2.89.16-.07.33.05.32.22-.17,2.62-.27,5.62-.24,8.91,0,.1-.07.2-.16.23-2.34.75-4.66,1.38-6.96,1.91-.14.03-.28-.07-.29-.22-.1-2.55-.11-5.21-.02-7.95,0-.1.07-.18.16-.21Z"/>
    <path class="cls-1" d="M460.42,17.43c-.1.6-.27,1.71-.46,3.23,0,.06-.04.12-.09.16-1.5,1.06-3.95,2.63-7.57,4.34-.16.08-.36-.05-.34-.22.26-3.48.7-7.08,1.34-10.79h0c.02-.19.06-.35.09-.52v-.03l-.24-.16c2.58,1.05,4.97,2.32,7.17,3.77.08.05.12.13.1.22Z"/>
    <path class="cls-1" d="M461.17,57.67c-2.23.12-4.5.18-6.77.18-.11,0-.21-.07-.23-.18-.51-2.26-.96-4.68-1.34-7.22-.02-.13.08-.25.21-.27,2.29-.25,4.55-.5,6.72-.76.12-.01.23.07.25.2.34,2.54.79,5.15,1.37,7.77.03.14-.07.27-.21.28Z"/>
    <path class="cls-1" d="M463.73,67.25c-2.29,0-4.63-.06-6.89-.18-.1,0-.18-.07-.21-.16-.62-1.92-1.22-4.04-1.8-6.33-.04-.15.09-.3.24-.29,2.49.13,4.78.2,6.89.24.1,0,.19.07.21.17.54,2.13,1.14,4.21,1.78,6.25.05.15-.06.3-.22.3Z"/>
    <path class="cls-1" d="M467.3,76.47c.07.17-.08.34-.26.31-2.77-.45-5.38-1.3-7.61-2.24h-.01c-.54-1.29-1.12-2.77-1.71-4.43-.06-.16.05-.33.22-.32,1.97.1,4.26.19,6.85.23.1,0,.19.07.22.16.75,2.18,1.52,4.28,2.3,6.28Z"/>
    <path class="cls-1" d="M469.77,83.08c-2.61-.36-4.57-.45-5.48-.55-.07,0-.12-.04-.16-.1-.71-1.01-1.44-1.98-2.84-3.87-.14-.18.04-.43.26-.36,2.44.83,5.33,1.52,7.17,1.78h0c.51,1.26.83,1.78,1.29,2.77.08.17-.07.35-.25.33Z"/>
    <path class="cls-1" d="M474.22,91.66c-2.13-.85-4.94-1.26-5.79-1.59-.06-.02-.09-.06-.12-.12-.6-1.42-1.79-3.37-2.7-4.9-.09-.15.01-.34.19-.35,1.19-.05,3.86.36,5.18.64.07.02.12.06.16.13,1.1,2.4,2.12,4.05,3.36,5.83.13.19-.06.43-.27.35Z"/>
    <path class="cls-1" d="M477.52,96.82c-.22.71-1.02,2.59-1.29,3.38-.04.12-.18.18-.29.14-2.03-.63-2.67-1.07-4.98-1.28-.11,0-.2-.09-.21-.19-.25-1.7-.62-3.54-1.21-5.47-.05-.16.08-.33.25-.3,3.28.54,7,2.8,7.69,3.52.05.06.07.13.05.21Z"/>
    <path class="cls-1" d="M479.54,87.57c-.36,1.81-.76,3.58-1.17,5.3-1.85-2.33-2.4-3.26-3.79-6.97,3.03.42,4.68,1.47,4.96,1.67Z"/>
    <path class="cls-1" d="M463.91,48.92c2.61-.32,4.37-.57,6.49-.85.14-.02.27.09.26.23-.01,1.86.45,6.75.51,8.12,0,.12-.08.22-.19.24-1.79.31-3.68.55-5.64.72-.12.01-.23-.07-.25-.19-.6-2.82-1.07-5.43-1.39-8.01-.02-.13.08-.24.21-.26Z"/>
    <path class="cls-1" d="M463.57,38.97c3.16-.76,5.48-1.4,7.58-2.03.16-.05.31.09.29.26-.37,3.03-.28,4.85-.64,8.11-.01.1-.08.18-.17.21-1.86.48-4.2.92-6.72,1.15-.13.01-.24-.09-.26-.22-.25-2.63-.43-4.36-.27-7.26,0-.1.08-.2.18-.22Z"/>
    <path class="cls-1" d="M472.26,29.12c-.01.44-.04.99-.07,1.66,0,.08-.05.17-.13.2-2.61,1.35-5.24,2.53-7.86,3.55-.17.06-.34-.07-.32-.25.42-3.18,1.1-6.68,2.08-10.71.1-.42.21-.83.31-1.27.02-.08.05-.17.07-.27,2.21,2.13,4.16,4.46,5.88,6.95.03.04.04.09.04.14Z"/>
    <path class="cls-1" d="M472.16,67.09c-1.4.05-2.87.1-4.4.13-.11,0-.2-.07-.23-.17-.57-1.99-1.12-4.06-1.63-6.22-.03-.15.08-.29.23-.29,1.83-.01,3.51-.06,5.03-.14.12,0,.22.09.23.21.2,2.24.54,4.31.98,6.2.03.14-.07.27-.21.28Z"/>
    <path class="cls-1" d="M475.62,76.88c-1.68.17-3.02.26-4.52.26-.1,0-.19-.06-.22-.15-.78-2.05-1.57-4.25-2.33-6.61-.05-.15.06-.31.22-.31,1.36,0,2.79,0,4.29-.03.1,0,.19.06.23.16.76,2.35,1.63,4.64,2.53,6.36.08.15-.03.31-.19.33Z"/>
    <path class="cls-1" d="M478.77,79.89c1.49,1.63,1.89,4,1.28,5.66-1.48-.54-3.72-1.45-6.32-1.78-.58-1.25-.88-1.74-1.51-3.23,2.52-.03,6.71-.65,6.55-.64Z"/>
    <path class="cls-1" d="M476.64,69.95c1.78-.03,3.65-.1,5.61-.2-.1,1.29-.82,5.14-.98,6.47-.95.22-1.26.28-2.15.17-.9-1.72-1.93-4.48-2.49-6.45Z"/>
    <path class="cls-1" d="M478.77,43.7c-1.34.54-2.19.74-3.2.91-.15.02-.29-.1-.27-.25.3-2.97.68-5.74.95-7.45.04-.23.35-.26.44-.04.83,1.97,1.57,4.67,2.21,6.55.04.12-.03.24-.14.29Z"/>
    <path class="cls-1" d="M481.71,52.92c-1.78,1.25-4.17,2.2-6.95,2.93-.06-2.93.05-5.78.24-8.39,2.77-.39,4.67-.67,5.33-.78.57,2.1,1.03,4.18,1.38,6.23Z"/>
    <path class="cls-1" d="M482.58,63.59c-.01.94-.05,1.9-.1,2.89-1.12.09-3.49.28-6.57.44-.46-2.2-.75-4.48-.94-6.77,3.48-.31,5.03-1.04,7.29-2.07.13,1.56.35,4.04.32,5.52Z"/>
  </g>
  <path class="cls-2" d="M462.16,86.96s17.43,28.13-4.46,43.52c-19.49,13.7-32.39-10.55-22.06-20.93,10.84-10.88,26.52-22.59,26.52-22.59Z"/>
  <path class="cls-1" d="M17.44,142.32l12.78-71.15c.1-.58.61-1,1.19-1h16.91c.59,0,1.09.42,1.19,1l4.74,25.97c.24,1.33,2.15,1.33,2.39,0l4.74-25.97c.11-.58.61-1,1.19-1h15.9c.75,0,1.32.67,1.2,1.41l-11.64,71.15c-.1.59-.6,1.02-1.2,1.02h-17.3c-.58,0-1.08-.41-1.19-.98l-4.78-24.07c-.26-1.33-2.18-1.29-2.39.05l-3.72,23.97c-.09.59-.6,1.03-1.2,1.03h-17.63c-.76,0-1.33-.68-1.19-1.43Z"/>
  <path class="cls-1" d="M88.86,70.86l-12.72,71.9c-.09.51.3.99.83.99h37.34c.41,0,.76-.3.83-.7l2.49-15.34c.08-.5-.29-.96-.8-.97l-17.23-.58c-.51-.02-.89-.49-.8-.99l1.69-9.16c.07-.39.41-.68.82-.69l16.93-.18c.41,0,.76-.31.82-.72l2.13-14.9c.07-.51-.32-.96-.83-.96h-15.64c-.5,0-.89-.44-.83-.94l1.17-9.56c.05-.42.41-.74.84-.74l16.5.18c.41,0,.76-.28.83-.68l3.03-15.65c.1-.52-.3-1-.82-1h-35.76c-.41,0-.76.29-.83.69Z"/>
  <path class="cls-2" d="M335.61,70.95l-12.69,71.7c-.1.57.34,1.1.92,1.1h36.48c.45,0,.83-.31.92-.75l3.08-15.15c.12-.57-.31-1.11-.89-1.12l-16.96-.57c-.57-.02-1-.54-.89-1.11l1.66-8.96c.08-.44.46-.76.91-.77l16.77-.18c.46,0,.85-.35.92-.81l2.1-14.7c.08-.57-.36-1.07-.93-1.07h-15.41c-.56,0-1-.49-.93-1.05l1.15-9.36c.06-.47.46-.83.94-.82l16.33.18c.45,0,.85-.31.93-.76l2.99-15.45c.11-.58-.33-1.12-.92-1.12h-35.55c-.46,0-.84.33-.92.77Z"/>
  <path class="cls-1" d="M131.42,71.15l8.11,36.09c.04.2.01.4-.09.58l-20.17,34.73c-.31.53.08,1.2.69,1.2h18.44c.3,0,.58-.17.71-.44l8.49-16.67c.34-.67,1.34-.54,1.5.2l3.47,16.28c.08.37.41.63.78.63h18.43c.52,0,.91-.5.77-1l-8.86-33.79c-.05-.2-.03-.41.07-.58l20.04-37.01c.29-.54-.1-1.19-.71-1.18l-17.29.16c-.3,0-.57.17-.7.43l-9.09,17.68c-.34.67-1.33.54-1.49-.19l-3.85-17.46c-.08-.37-.41-.63-.78-.63h-17.69c-.51,0-.89.48-.78.98Z"/>
  <path class="cls-1" d="M195.32,88.89l-9.7,53.85c-.09.52.31,1.01.84,1.01h17c.41,0,.77-.29.84-.7l10-54.44c.07-.41.43-.7.84-.7h9.43c.41,0,.76-.29.84-.69l3.21-16.02c.11-.53-.3-1.02-.84-1.02h-40.07c-.41,0-.76.29-.84.69l-3.21,15.84c-.11.52.29,1.02.82,1.03l10,.16c.53,0,.92.49.83,1.01Z"/>
  <path class="cls-2" d="M297.31,88.83l-9.72,53.96c-.09.5.29.95.79.95h17.1c.39,0,.72-.28.79-.66l10.01-54.52c.07-.38.4-.66.79-.66h9.51c.38,0,.72-.27.79-.65l3.23-16.11c.1-.5-.28-.97-.79-.97h-40.17c-.38,0-.71.27-.79.65l-3.19,15.73c-.12.6.33,1.16.94,1.17l9.91.16c.5,0,.87.46.78.95Z"/>
  <path class="cls-2" d="M279.94,85.78l3.28-14.47c.13-.58-.31-1.14-.91-1.14h-17.9c-2.29,0-4.55.44-6.66,1.32-5.54,2.29-14.79,8.06-14.52,20.95.39,18.34,14.6,22.49,14.6,29.78,0,6.41-15.5,5.52-19.29,5.2-.47-.04-.9.28-.99.75l-2.78,14.46c-.11.57.33,1.11.91,1.11h21.85c3.55,0,7.04-1.05,9.93-3.1,4.78-3.39,10.96-9.74,11.08-20,.2-16.77-15.68-18.35-14.79-28.4.62-7.02,11.04-6.44,15.14-5.75.48.08.94-.23,1.05-.71Z"/>
  <path class="cls-2" d="M401.75,70.17h-21.23c-.8,0-1.48.58-1.6,1.37l-11.31,70.33c-.16.99.6,1.88,1.6,1.88h15.06c.79,0,1.47-.57,1.6-1.36l3.09-18.62c.13-.78.81-1.36,1.6-1.36h14c.21,0,.42-.04.61-.12,2.25-.94,16.38-7.73,17.74-30.06,1.44-23.6-19.88-22.17-21.06-22.07-.04,0-.08,0-.12,0ZM403.4,96.96c-.64,7.6-6.1,9.44-9.17,9.88-1.06.15-1.95-.77-1.81-1.83l2.21-16.56c.12-.89.94-1.52,1.83-1.4,2.67.37,7.59,2.09,6.94,9.9Z"/>
</svg>